<?xml version="1.0" encoding="utf-8"?>
<!-- Generator: Adobe Illustrator 21.0.0, SVG Export Plug-In . SVG Version: 6.00 Build 0)  -->
<svg version="1.1" id="Layer_1" xmlns="http://www.w3.org/2000/svg" xmlns:xlink="http://www.w3.org/1999/xlink" x="0px" y="0px"
	 viewBox="0 0 50 50" style="enable-background:new 0 0 50 50;" xml:space="preserve">
<style type="text/css">
	.st0{fill:#E6E6E6;}
</style>
<path class="st0" d="M33.2,25c0,4.6-3.7,8.2-8.3,8.2c-4.5,0-8.2-3.8-8.1-8.3c0-4.6,3.7-8.2,8.3-8.2C29.6,16.8,33.3,20.5,33.2,25z"/>
<path class="st0" d="M49.6,20.9c-0.3-2-0.9-3.9-1.7-5.7C43.6,4.8,32.6-1.4,21.6,0.3C12.8,1.6,6.4,6.4,2.4,14.4
	c-1.1,2.2-1.8,4.6-2.1,7.1c0,0.2,0,0.3,0,0.5c0.1,0,0.1,0,0.2,0c3.8,0,7.7,0,11.5,0c0.1,0,0.2-0.1,0.3-0.1c0-0.1,0.1-0.3,0.1-0.4
	c1.5-5.2,5.8-8.8,11.2-9.4c5.1-0.6,10.2,2.1,12.8,6.7c0.5,1,0.9,2.1,1.3,3.2c0.1,0,0.2,0.1,0.3,0.1c3.8,0,7.6,0,11.4,0
	c0.1,0,0.3,0,0.4,0C49.7,21.6,49.7,21.2,49.6,20.9z"/>
<path class="st0" d="M49.5,28c-0.3,0-0.5,0-0.8,0c-3.4,0-6.7,0-10.1,0c-0.3,0-0.6,0-0.9,0c-0.2,0.6-0.4,1.1-0.6,1.7
	c-3.5,9.2-15.9,11.3-22.1,3.6c-1.3-1.5-2.1-3.3-2.7-5.2c-0.2,0-0.4-0.1-0.6-0.1c-3.5,0-7.1,0-10.6,0c-0.3,0-0.6,0-0.9,0
	c0,0.2,0,0.3,0.1,0.5c0,0.3,0.1,0.6,0.1,0.8c2.2,13.2,14.9,22.5,28.1,20.4c9.3-1.4,15.8-6.6,19.6-15.2c0.9-1.9,1.4-4,1.6-6.1
	C49.8,28.2,49.9,27.9,49.5,28z"/>
</svg>
